<svg width="258" height="172" viewBox="0 0 258 172" fill="none" xmlns="http://www.w3.org/2000/svg">
<mask id="mask0" mask-type="alpha" maskUnits="userSpaceOnUse" x="0" y="0" width="258" height="172">
<rect width="258" height="172" fill="#FFECE6"/>
</mask>
<g mask="url(#mask0)">
<rect width="258" height="172" fill="#FFECE6"/>
<path d="M64.5713 14C78.6941 14 90.1429 25.4488 90.1429 39.5716C90.1429 53.6944 78.6941 65.1432 64.5713 65.1432L49.2284 65.1432C43.5793 65.1432 38.9997 60.5637 38.9997 54.9146L38.9997 39.5716C38.9997 25.4488 50.4485 14 64.5713 14Z" fill="url(#paint0_linear)"/>
<path d="M64.5713 14C78.6941 14 90.1429 25.4488 90.1429 39.5716C90.1429 53.6944 78.6941 65.1432 64.5713 65.1432L49.2284 65.1432C43.5793 65.1432 38.9997 60.5637 38.9997 54.9146L38.9997 39.5716C38.9997 25.4488 50.4485 14 64.5713 14Z" stroke="white"/>
<circle cx="68.6088" cy="39.8408" r="13.9971" fill="url(#paint1_linear)"/>
<circle cx="68.6088" cy="39.8408" r="13.9971" stroke="black"/>
<path d="M131.866 139.386C117.978 132.084 107.212 140.217 98.6768 151.088C92.6219 158.178 84.742 161.309 75.5889 161.143C65.1978 160.937 56.0012 157.217 48.247 150.276C33.4509 137.855 34.9941 115.586 45.4741 100.864C50.5706 93.7746 57.4589 89.3829 66.0595 88.1683C73.0391 87.2668 80.212 87.9465 87.2315 87.005C91.9272 86.4093 95.5668 84.0256 97.6871 79.8064C99.9907 75.2756 102.047 70.6092 103.983 65.903C111.582 45.8324 127.187 27.8624 148.97 23.4957C171.025 18.4739 195.774 23.9282 210.647 41.724C224.024 57.0534 230.938 78.2995 226.59 98.4387C221.931 119.752 205.552 137.891 184.953 144.94C176.945 147.655 168.527 148.319 160.18 147.568C151.777 146.826 143.548 144.598 135.854 141.163L131.866 139.386Z" fill="url(#paint2_linear)"/>
<path d="M76.9193 141.359C79.9774 140.485 82.6831 138.669 84.7413 136.239C90.3015 129.596 95.9833 124.751 102.05 121.47C112.276 115.925 123.392 114.908 134.274 118.523C136.407 119.231 138.533 120.124 140.626 121.192L144.078 122.738C145.884 123.551 147.722 124.268 149.567 124.881C153.666 126.243 157.844 127.125 161.981 127.488C168.108 128.033 173.642 127.477 178.441 125.85C185.347 123.487 191.66 119.224 196.758 113.572C201.832 107.913 205.34 101.2 206.866 94.2021C208.234 87.8432 207.923 80.847 205.912 74.0043C203.908 67.1376 200.283 60.584 195.47 55.0459L195.334 54.8943L195.198 54.7427C191.176 49.9466 185.837 46.3898 179.341 44.2319C171.432 41.6041 162.263 41.2459 153.511 43.2354L153.255 43.2835L153 43.3317C146.644 44.6 140.753 47.9124 135.503 53.1411C130.252 58.3697 125.914 65.2587 122.943 73.0808L122.856 73.3445L122.752 73.5762C120.449 79.2252 118.17 84.2432 115.779 88.9579C110.709 99.0104 101.283 105.593 89.9115 107.058C85.2079 107.678 80.7593 107.77 76.8538 107.83C73.9067 107.889 71.1273 107.923 68.8194 108.221C68.8194 108.221 58.6776 109.669 56.7161 120.94C54.7546 132.212 62.7576 140.406 70.3225 141.748C72.7669 142.161 75.0109 141.896 76.9193 141.359Z" fill="url(#paint3_linear)"/>
<path d="M155.29 111.506C169.56 116.247 184.971 108.522 189.712 94.2522C194.452 79.9822 186.728 64.5709 172.458 59.8301C158.188 55.0893 142.776 62.8142 138.035 77.0842C133.295 91.3541 141.02 106.765 155.29 111.506Z" fill="url(#paint4_linear)"/>
<path d="M72.517 130.9C75.9455 132.039 79.6482 130.183 80.7873 126.754C81.9263 123.326 80.0703 119.623 76.6418 118.484C73.2133 117.345 69.5106 119.201 68.3716 122.63C67.2325 126.058 69.0885 129.761 72.517 130.9Z" fill="url(#paint5_linear)"/>
<path d="M67.0008 65H49.0008C45.8341 64.6667 39.4008 61.8 39.0008 57C38.6008 52.2 38.8341 44 39.0008 40" stroke="black"/>
<path d="M68.9972 53.9942C61.2668 53.9942 55.0001 47.7275 55.0001 39.9971C55.0001 32.2667 61.2668 26 68.9972 26" stroke="black"/>
<path d="M68.9972 53.9942C61.2668 53.9942 55.0001 47.7275 55.0001 39.9971C55.0001 32.2667 61.2668 26 68.9972 26" stroke="black" stroke-opacity="0.2"/>
<path d="M45.4741 100.864C34.9941 115.587 33.4509 137.856 48.247 150.276C56.0012 157.217 65.1978 160.938 75.5889 161.143C84.742 161.31 92.6219 158.179 98.6768 151.088C107.212 140.218 117.978 132.084 131.867 139.387L135.854 141.164" stroke="black" stroke-miterlimit="10"/>
<path d="M205.911 74.0041C207.923 80.8468 208.233 87.843 206.866 94.2019C205.34 101.2 201.832 107.912 196.758 113.572C191.66 119.224 185.347 123.487 178.44 125.85C173.642 127.476 168.108 128.033 161.981 127.488C157.844 127.125 153.666 126.242 149.567 124.881C147.721 124.268 145.884 123.551 144.078 122.738L140.626 121.192C138.532 120.124 136.407 119.231 134.274 118.523C123.392 114.907 112.275 115.925 102.05 121.47C95.9831 124.751 90.3013 129.596 84.7411 136.239C82.6829 138.669 79.9772 140.485 76.9191 141.358C75.0108 141.895 72.7667 142.161 70.3223 141.748M195.334 54.8942L195.198 54.7425" stroke="black" stroke-miterlimit="10"/>
<path d="M154.838 111.26C140.568 106.519 132.843 91.108 137.584 76.8381C142.325 62.5681 157.736 54.8432 172.006 59.584" stroke="black" stroke-miterlimit="10"/>
<path d="M72.2082 130.478C68.7797 129.339 66.9237 125.636 68.0627 122.208C69.2018 118.779 72.9045 116.923 76.333 118.062" stroke="black" stroke-miterlimit="10"/>
</g>
<defs>
<linearGradient id="paint0_linear" x1="42.9999" y1="68" x2="82.4999" y2="21.5" gradientUnits="userSpaceOnUse">
<stop offset="0.676536" stop-color="#C3F0F7"/>
<stop offset="0.993046" stop-color="#C3F0F7" stop-opacity="0"/>
</linearGradient>
<linearGradient id="paint1_linear" x1="68.6088" y1="25.8437" x2="68.6088" y2="53.8379" gradientUnits="userSpaceOnUse">
<stop stop-color="#FF3C00"/>
<stop offset="1" stop-color="#FF3C00" stop-opacity="0"/>
</linearGradient>
<linearGradient id="paint2_linear" x1="200" y1="42" x2="81" y2="174" gradientUnits="userSpaceOnUse">
<stop stop-color="#C3F0F7" stop-opacity="0"/>
<stop offset="0.412903" stop-color="#C3F0F7"/>
</linearGradient>
<linearGradient id="paint3_linear" x1="155.474" y1="36.3026" x2="61.9999" y2="135.5" gradientUnits="userSpaceOnUse">
<stop offset="0.631144" stop-color="white"/>
<stop offset="0.969981" stop-color="white" stop-opacity="0"/>
</linearGradient>
<linearGradient id="paint4_linear" x1="172.458" y1="59.8301" x2="155.29" y2="111.506" gradientUnits="userSpaceOnUse">
<stop stop-color="#FF3C00"/>
<stop offset="1" stop-color="#FF3C00" stop-opacity="0"/>
</linearGradient>
<linearGradient id="paint5_linear" x1="76.6418" y1="118.484" x2="72.517" y2="130.9" gradientUnits="userSpaceOnUse">
<stop stop-color="#FF3C00"/>
<stop offset="1" stop-color="#FF3C00" stop-opacity="0"/>
</linearGradient>
</defs>
</svg>
