<svg width="258" height="172" viewBox="0 0 258 172" fill="none" xmlns="http://www.w3.org/2000/svg">
<rect width="258" height="172" fill="#FFECE6"/>
<mask id="mask0" mask-type="alpha" maskUnits="userSpaceOnUse" x="104" y="56" width="60" height="60">
<circle cx="133.68" cy="85.68" r="29.68" fill="#C3F0F7"/>
<circle cx="133.68" cy="85.68" r="29.68" stroke="#202641"/>
<path d="M118.107 90.6251C119.115 88.2623 120.522 86.1629 122.228 84.4418C125.28 81.3632 129.289 79.4951 133.68 79.4951C140.526 79.4951 146.443 84.0356 149.253 90.6251" stroke="#202641" stroke-width="1.696"/>
<circle cx="141.736" cy="72.5358" r="1.696" fill="#202641"/>
<circle cx="125.624" cy="72.5358" r="1.696" fill="#202641"/>
</mask>
<g mask="url(#mask0)">
<g filter="url(#filter0_f)">
<path d="M117 114C105.402 102.402 105.402 83.598 117 72C128.598 60.402 147.402 60.402 159 72C170.598 83.598 168.179 104.821 159 114C149.821 123.179 127.465 121.385 117 114Z" fill="url(#paint0_radial)"/>
</g>
</g>
<mask id="mask1" mask-type="alpha" maskUnits="userSpaceOnUse" x="104" y="56" width="60" height="60">
<circle cx="133.68" cy="85.68" r="29.68" fill="#C3F0F7"/>
<circle cx="133.68" cy="85.68" r="29.68" stroke="#202641"/>
<path d="M118.107 90.6251C119.115 88.2623 120.522 86.1629 122.228 84.4418C125.28 81.3632 129.289 79.4951 133.68 79.4951C140.526 79.4951 146.443 84.0356 149.253 90.6251" stroke="#202641" stroke-width="1.696"/>
<circle cx="141.736" cy="72.5358" r="1.696" fill="#202641"/>
<circle cx="125.624" cy="72.5358" r="1.696" fill="#202641"/>
</mask>
<g mask="url(#mask1)">
<g filter="url(#filter1_f)">
<path d="M108 107C96.402 95.402 96.402 76.598 108 65C119.598 53.402 138.402 53.402 150 65C161.598 76.598 159.179 97.8214 150 107C140.821 116.179 118.465 114.385 108 107Z" fill="url(#paint1_radial)"/>
</g>
</g>
<mask id="mask2" mask-type="alpha" maskUnits="userSpaceOnUse" x="180" y="56" width="60" height="60">
<circle cx="209.68" cy="85.68" r="29.68" fill="#C3F0F7"/>
<circle cx="209.68" cy="85.68" r="29.68" stroke="#202641"/>
<path d="M194.107 90.6251C195.115 88.2623 196.522 86.1629 198.228 84.4418C201.28 81.3632 205.289 79.4951 209.68 79.4951C216.526 79.4951 222.443 84.0356 225.253 90.6251" stroke="#202641" stroke-width="1.696"/>
<circle cx="217.736" cy="72.5358" r="1.696" fill="#202641"/>
<circle cx="201.624" cy="72.5358" r="1.696" fill="#202641"/>
</mask>
<g mask="url(#mask2)">
<g filter="url(#filter2_f)">
<path d="M184 107C172.402 95.402 172.402 76.598 184 65C195.598 53.402 214.402 53.402 226 65C237.598 76.598 235.179 97.8214 226 107C216.821 116.179 194.465 114.385 184 107Z" fill="url(#paint2_radial)"/>
</g>
</g>
<path d="M124.106 84.4404H143.893" stroke="#202641" stroke-width="1.696"/>
<circle cx="142.056" cy="72.5358" r="1.696" fill="#202641"/>
<circle cx="125.945" cy="72.5358" r="1.696" fill="#202641"/>
<path d="M210.32 96.8085C219.882 96.8085 227.633 89.057 227.633 79.4951H193.006C193.006 89.057 200.758 96.8085 210.32 96.8085Z" stroke="#202641" stroke-width="1.696"/>
<circle cx="218.376" cy="72.5358" r="1.696" fill="#202641"/>
<circle cx="202.264" cy="72.5358" r="1.696" fill="#202641"/>
<mask id="mask3" mask-type="alpha" maskUnits="userSpaceOnUse" x="28" y="56" width="60" height="60">
<circle cx="57.68" cy="85.68" r="29.68" fill="#C3F0F7"/>
<circle cx="57.68" cy="85.68" r="29.68" stroke="#202641"/>
<path d="M42.1073 90.6251C43.1148 88.2623 44.5219 86.1629 46.2281 84.4418C49.2802 81.3632 53.2893 79.4951 57.6801 79.4951C64.5257 79.4951 70.4433 84.0356 73.253 90.6251" stroke="#202641" stroke-width="1.696"/>
<circle cx="65.736" cy="72.5358" r="1.696" fill="#202641"/>
<circle cx="49.624" cy="72.5358" r="1.696" fill="#202641"/>
</mask>
<g mask="url(#mask3)">
<g filter="url(#filter3_f)">
<path d="M41 114C29.402 102.402 29.402 83.598 41 72C52.598 60.402 71.402 60.402 83 72C94.598 83.598 92.1786 104.821 83 114C73.8214 123.179 51.4647 121.385 41 114Z" fill="url(#paint3_radial)"/>
</g>
</g>
<path d="M42 90.7853C43.0075 88.4224 44.4146 86.323 46.1208 84.6019C49.1729 81.5233 53.182 79.6553 57.5728 79.6553C64.4184 79.6553 70.336 84.1957 73.1457 90.7853" stroke="#202641" stroke-width="1.696"/>
<circle cx="65.6286" cy="72.696" r="1.696" fill="#202641"/>
<circle cx="49.5168" cy="72.696" r="1.696" fill="#202641"/>
<path d="M30.924 97.679C24.5284 82.4808 31.4252 65.0763 46.3284 58.8048C61.2316 52.5333 78.4977 59.7697 84.8933 74.9679" stroke="black" stroke-width="1.5"/>
<path d="M147.847 111.4C133.091 118.758 115.28 112.993 108.065 98.5232C100.849 84.0533 106.962 66.3583 121.718 59.0002" stroke="black" stroke-width="1.5"/>
<path d="M237.042 96.2843C230.254 111.748 212.763 119.022 197.974 112.53C183.186 106.038 176.7 88.2394 183.489 72.7755" stroke="black" stroke-width="1.5"/>
<defs>
<filter id="filter0_f" x="88.3015" y="43.3018" width="98.5159" height="96.9281" filterUnits="userSpaceOnUse" color-interpolation-filters="sRGB">
<feFlood flood-opacity="0" result="BackgroundImageFix"/>
<feBlend mode="normal" in="SourceGraphic" in2="BackgroundImageFix" result="shape"/>
<feGaussianBlur stdDeviation="10" result="effect1_foregroundBlur"/>
</filter>
<filter id="filter1_f" x="79.3015" y="36.3018" width="98.5159" height="96.9281" filterUnits="userSpaceOnUse" color-interpolation-filters="sRGB">
<feFlood flood-opacity="0" result="BackgroundImageFix"/>
<feBlend mode="normal" in="SourceGraphic" in2="BackgroundImageFix" result="shape"/>
<feGaussianBlur stdDeviation="10" result="effect1_foregroundBlur"/>
</filter>
<filter id="filter2_f" x="155.302" y="36.3018" width="98.5159" height="96.9281" filterUnits="userSpaceOnUse" color-interpolation-filters="sRGB">
<feFlood flood-opacity="0" result="BackgroundImageFix"/>
<feBlend mode="normal" in="SourceGraphic" in2="BackgroundImageFix" result="shape"/>
<feGaussianBlur stdDeviation="10" result="effect1_foregroundBlur"/>
</filter>
<filter id="filter3_f" x="12.3015" y="43.3018" width="98.5159" height="96.9281" filterUnits="userSpaceOnUse" color-interpolation-filters="sRGB">
<feFlood flood-opacity="0" result="BackgroundImageFix"/>
<feBlend mode="normal" in="SourceGraphic" in2="BackgroundImageFix" result="shape"/>
<feGaussianBlur stdDeviation="10" result="effect1_foregroundBlur"/>
</filter>
<radialGradient id="paint0_radial" cx="0" cy="0" r="1" gradientUnits="userSpaceOnUse" gradientTransform="translate(125.776 79.7408) rotate(45.2445) scale(69.9661 62.3698)">
<stop offset="0.0843367" stop-color="#C3F0F7"/>
<stop offset="0.773619" stop-color="#9C89D4"/>
</radialGradient>
<radialGradient id="paint1_radial" cx="0" cy="0" r="1" gradientUnits="userSpaceOnUse" gradientTransform="translate(116.776 72.7408) rotate(45.2445) scale(69.9661 62.3698)">
<stop offset="0.828125" stop-color="white"/>
<stop offset="0.963542" stop-color="#EBEEF9"/>
</radialGradient>
<radialGradient id="paint2_radial" cx="0" cy="0" r="1" gradientUnits="userSpaceOnUse" gradientTransform="translate(192.776 72.7408) rotate(45.2445) scale(69.9661 62.3698)">
<stop offset="0.0843367" stop-color="#FF3C00"/>
<stop offset="0.773619" stop-color="#FFECE6"/>
</radialGradient>
<radialGradient id="paint3_radial" cx="0" cy="0" r="1" gradientUnits="userSpaceOnUse" gradientTransform="translate(49.7759 79.7408) rotate(45.2445) scale(69.9661 62.3698)">
<stop offset="0.0843367" stop-color="#C3F0F7"/>
<stop offset="0.773619" stop-color="#9C89D4"/>
</radialGradient>
</defs>
</svg>
