<svg width="258" height="172" viewBox="0 0 258 172" fill="none" xmlns="http://www.w3.org/2000/svg">
<rect width="258" height="172" fill="#FFE2D9"/>
<rect width="258" height="172" fill="#FFECE6"/>
<mask id="mask0" mask-type="alpha" maskUnits="userSpaceOnUse" x="0" y="0" width="258" height="172">
<rect width="258" height="172" fill="#C4C4C4"/>
</mask>
<g mask="url(#mask0)">
<g filter="url(#filter0_f)">
<path d="M157.094 51.2812C141.578 35.7655 141.578 10.6095 157.094 -4.9062C172.609 -20.4219 197.765 -20.4219 213.281 -4.90621C228.797 10.6095 225.56 39.0021 213.281 51.2812C201.002 63.5603 171.093 61.1613 157.094 51.2812Z" fill="url(#paint0_radial)"/>
</g>
</g>
<path d="M24 112.737C63.3042 155.94 122.999 148.329 133.048 130.04C154.726 90.5985 26.2106 65.0285 43.2852 95.5792C55.2909 117.06 184.111 95.2382 191.701 22" stroke="#FF3C00" stroke-width="4" stroke-linejoin="bevel"/>
<path d="M177.726 85.294L190.183 19.4754L232.068 73.4143L211.005 76.7247L220.867 115.662L207.242 119.368L197.38 80.4312L177.726 85.294Z" fill="white"/>
<path d="M190.183 19.4754L177.726 85.294L197.38 80.4312L204 106.5" stroke="black" stroke-width="1.5" stroke-linecap="round"/>
<defs>
<filter id="filter0_f" x="115.457" y="-46.543" width="138.282" height="136.158" filterUnits="userSpaceOnUse" color-interpolation-filters="sRGB">
<feFlood flood-opacity="0" result="BackgroundImageFix"/>
<feBlend mode="normal" in="SourceGraphic" in2="BackgroundImageFix" result="shape"/>
<feGaussianBlur stdDeviation="15" result="effect1_foregroundBlur"/>
</filter>
<radialGradient id="paint0_radial" cx="0" cy="0" r="1" gradientUnits="userSpaceOnUse" gradientTransform="translate(168.834 5.44942) rotate(45.2445) scale(93.6003 83.438)">
<stop offset="0.0843367" stop-color="#C3F0F7"/>
<stop offset="0.773619" stop-color="#9C89D4"/>
</radialGradient>
</defs>
</svg>
